<svg width="100" height="100" viewBox="0 0 100 100" fill="none" xmlns="http://www.w3.org/2000/svg">
<rect width="100" height="100" rx="48" fill="#E1F2E9"/>
<path d="M68.1053 71.0373C66.2451 71.0373 64.5672 70.4902 63.0717 69.3959C61.6127 68.3017 60.6825 66.715 60.2813 64.6359C58.0563 64.0158 56.4514 62.885 55.4665 61.2436C54.4817 59.5657 53.9893 57.6325 53.9893 55.444C53.9893 53.3649 54.3723 51.2128 55.1382 48.9878C55.9407 46.7628 57.0532 44.7019 58.4758 42.8052C59.8983 40.872 61.5944 39.3217 63.5641 38.1545C65.5338 36.9508 67.7041 36.349 70.075 36.349C71.5705 36.349 72.756 36.7137 73.6314 37.4432C74.5433 38.1363 75.1999 39.0482 75.6011 40.1789C76.0023 41.2732 76.2029 42.4039 76.2029 43.5712C76.2029 43.9359 76.1847 44.3007 76.1482 44.6654C76.1118 44.9937 76.057 45.3402 75.9841 45.705C76.4218 45.4861 76.8595 45.2673 77.2972 45.0484C77.7714 44.8296 78.2456 44.629 78.7198 44.4466L79.4858 44.1183C80.1058 42.6228 80.7624 41.1638 81.4554 39.7412C82.1485 38.2822 82.9327 36.9326 83.8081 35.6924C84.5376 34.6711 85.4131 33.7592 86.4344 32.9567C87.4922 32.1543 88.6412 31.753 89.8813 31.753C91.0121 31.753 91.8145 32.0084 92.2887 32.519C92.7629 32.9932 93 33.5951 93 34.3246C93 35.3459 92.6535 36.3125 91.9604 37.2244C91.3039 38.1363 90.4467 38.9935 89.3889 39.7959C88.3311 40.5619 87.1821 41.2914 85.942 41.9845C84.7383 42.641 83.571 43.2246 82.4403 43.7353C81.7108 45.9238 80.9448 48.1306 80.1423 50.3556C79.3763 52.5442 78.428 54.6233 77.2972 56.593C76.1665 58.5262 74.671 60.2405 72.8107 61.736C71.4246 62.8668 69.9109 63.7057 68.2695 64.2529C66.6646 64.8 65.1143 65.0736 63.6188 65.0736C63.3635 65.0736 63.1082 65.0553 62.8529 65.0189C62.634 65.0189 62.4151 65.0006 62.1963 64.9641C62.4881 66.4232 63.1082 67.6633 64.0565 68.6847C65.0049 69.7425 66.4457 70.2714 68.3789 70.2714C68.9625 70.2714 69.5097 70.1802 70.0203 69.9978C70.531 69.8519 71.1146 69.5601 71.7712 69.1224C71.7712 69.1224 71.7712 69.1041 71.7712 69.0677C71.8076 69.0677 71.8441 69.0677 71.8806 69.0677C71.99 69.0677 72.0447 69.1771 72.0447 69.3959C72.0447 69.6513 71.8259 69.9066 71.3882 70.1619C70.9869 70.4173 70.4763 70.6179 69.8562 70.7638C69.2361 70.9462 68.6525 71.0373 68.1053 71.0373ZM82.8233 42.641C84.2458 41.948 85.6502 41.182 87.0362 40.3431C88.4223 39.4676 89.5713 38.5375 90.4832 37.5527C91.3951 36.5314 91.851 35.4736 91.851 34.3793C91.851 33.8686 91.7234 33.4309 91.468 33.0662C91.2492 32.6649 90.8297 32.4643 90.2096 32.4643C89.5166 32.4643 88.8418 32.7014 88.1852 33.1756C87.5651 33.6133 87.018 34.1422 86.5438 34.7623C86.0696 35.3824 85.6684 35.9842 85.3401 36.5678C84.8659 37.4797 84.41 38.4646 83.9723 39.5224C83.571 40.5437 83.188 41.5832 82.8233 42.641ZM60.1719 63.8152C60.1354 63.6328 60.1172 63.4504 60.1172 63.268C60.1172 63.0857 60.1172 62.9215 60.1172 62.7756C60.1172 60.4412 60.7555 58.2891 62.0321 56.3194C63.3088 54.3497 65.0232 52.5442 67.1752 50.9028C69.3638 49.2614 71.7894 47.7659 74.4521 46.4163C74.671 45.5773 74.7804 44.7201 74.7804 43.8447C74.7804 42.7869 74.6345 41.7474 74.3427 40.7261C74.0509 39.7047 73.5402 38.8476 72.8107 38.1545C72.1177 37.4615 71.1511 37.115 69.9109 37.115C68.0142 37.115 66.2269 37.7168 64.549 38.9205C62.9076 40.1242 61.4668 41.6927 60.2266 43.6259C58.9864 45.5226 58.0016 47.5835 57.2721 49.8085C56.579 51.997 56.2325 54.0762 56.2325 56.0458C56.2325 57.9061 56.5243 59.5475 57.1079 60.9701C57.6915 62.3561 58.7129 63.3045 60.1719 63.8152ZM62.0869 64.1434H62.3057C63.5094 64.1434 64.8773 63.7969 66.4092 63.1039C67.9777 62.4108 69.6373 61.1524 71.3882 59.3287C73.2119 57.4319 74.671 55.2616 75.7652 52.8177C76.896 50.3374 77.972 47.8206 78.9933 45.2673L75.6558 47.0181C74.9628 49.2431 73.7773 51.3952 72.0994 53.4743C70.458 55.5534 68.689 57.286 66.7922 58.6721C66.5369 58.8545 66.2998 58.9457 66.0809 58.9457C65.8986 58.9457 65.8074 58.8909 65.8074 58.7815C65.8074 58.6721 65.8439 58.5809 65.9168 58.508C67.5217 57.3043 69.1084 55.7723 70.6769 53.912C72.2453 52.0518 73.3761 50.0456 74.0691 47.8935C71.99 49.0972 70.0386 50.4833 68.2148 52.0518C66.391 53.5837 64.8955 55.2616 63.7283 57.0854C62.5975 58.8727 62.0321 60.7877 62.0321 62.8303C62.0321 63.0492 62.0321 63.268 62.0321 63.4869C62.0321 63.7057 62.0504 63.9246 62.0869 64.1434Z" fill="#2D4F40"/>
<path d="M11.7601 64.1982C11.1035 64.1982 10.4105 64.0887 9.68096 63.8699C8.95145 63.651 8.33136 63.2498 7.8207 62.6662C7.27357 62.119 7 61.3713 7 60.4229C7 59.9123 7.18238 59.3651 7.54714 58.7815C7.87542 58.1614 8.31312 57.8332 8.86026 57.7967C8.71436 57.9426 8.60493 58.1797 8.53198 58.508C8.4955 58.8362 8.47727 59.128 8.47727 59.3834C8.51374 60.0035 8.78731 60.5324 9.29797 60.9701C9.80863 61.4078 10.6111 61.6266 11.7054 61.6266C13.0914 61.6266 14.5322 61.2254 16.0277 60.4229C17.5597 59.584 19.0917 58.4897 20.6237 57.1401C22.1921 55.754 23.7059 54.2221 25.1649 52.5442C26.6604 50.8663 28.0282 49.1702 29.2684 47.4558C30.4356 45.8144 31.8035 43.9906 33.3719 41.9845C34.9404 39.9783 36.6365 38.0269 38.4603 36.1301C40.2841 34.2334 42.1443 32.6649 44.0411 31.4248C43.1656 30.9141 42.0896 30.5129 40.813 30.2211C39.5363 29.8928 38.0226 29.7286 36.2717 29.7286C33.7184 29.7286 31.3293 30.0934 29.1043 30.8229C26.8792 31.5524 24.8548 32.519 23.0311 33.7227C21.2073 34.9264 19.6206 36.2578 18.271 37.7168C16.9579 39.1394 15.9365 40.5984 15.207 42.0939C14.514 43.5529 14.1675 44.9025 14.1675 46.1427C14.1675 47.3464 14.5322 48.3677 15.2617 49.2067C16.0277 50.0091 17.2497 50.4833 18.9275 50.6292C19.1464 50.6292 19.2558 50.6839 19.2558 50.7933C19.2558 50.9392 19.0917 50.994 18.7634 50.9575C16.5749 50.7751 14.9517 50.155 13.8939 49.0972C12.8726 48.003 12.3619 46.6716 12.3619 45.1031C12.3619 43.4617 12.8908 41.7291 13.9486 39.9054C15.0429 38.0451 16.6113 36.2943 18.654 34.6529C20.6966 32.975 23.177 31.6254 26.095 30.6041C29.0496 29.5463 32.3688 29.0174 36.0529 29.0174C38.059 29.0174 39.8099 29.1815 41.3054 29.5098C42.8009 29.8381 44.0775 30.2575 45.1353 30.7682C47.1415 29.5645 49.0929 28.9626 50.9897 28.9626C51.938 28.9626 52.8499 29.218 53.7253 29.7286C54.6372 30.2028 55.0932 31.1147 55.0932 32.4643C54.8743 31.8807 54.3272 31.3336 53.4518 30.8229C52.6128 30.2758 51.628 30.0022 50.4973 30.0022C49.7313 30.0022 48.9653 30.1116 48.1993 30.3305C47.4333 30.5493 46.6855 30.8594 45.956 31.2606C47.2327 32.0631 48.1628 32.9932 48.7464 34.051C49.33 35.1088 49.6218 36.2031 49.6218 37.3338C49.6218 38.8293 49.1112 40.2883 48.0899 41.7109C47.0685 43.1335 45.7189 44.3007 44.0411 45.2126C42.3632 46.088 40.5212 46.5257 38.515 46.5257C38.5515 46.6716 38.5697 46.8175 38.5697 46.9634C38.5697 47.1093 38.5697 47.2734 38.5697 47.4558C38.5697 48.5136 38.4056 49.8632 38.0773 51.5046C38.0043 51.9788 37.8767 52.7266 37.6943 53.7479C37.5484 54.7692 37.4754 55.8088 37.4754 56.8665C37.4754 58.1067 37.6396 59.201 37.9679 60.1494C38.3326 61.0977 39.0074 61.5719 39.9923 61.5719C40.9041 61.5719 41.8343 61.2436 42.7826 60.5871C43.731 59.894 44.6064 59.1098 45.4089 58.2344C46.2478 57.359 46.9044 56.6477 47.3786 56.1006C47.5245 56.1006 47.5974 56.21 47.5974 56.4288C47.5974 56.7571 47.5245 57.0124 47.3786 57.1948C45.7007 59.1645 44.1505 60.6235 42.7279 61.5719C41.3054 62.4838 39.7369 62.9397 38.0226 62.9397C37.1836 62.9397 36.4176 62.6662 35.7246 62.119C35.0316 61.5354 34.685 60.4229 34.685 58.7815C34.685 57.8696 34.8492 56.8665 35.1775 55.7723C35.5057 54.6415 35.8705 53.5108 36.2717 52.38C36.7094 51.2493 37.0924 50.228 37.4207 49.3161C37.749 48.3677 37.9131 47.6382 37.9131 47.1275C37.9131 46.8357 37.8767 46.6534 37.8037 46.5804C37.3295 46.5075 36.9648 46.3615 36.7094 46.1427C36.4906 45.8874 36.3812 45.6503 36.3812 45.4314C36.3812 45.1396 36.5635 44.9937 36.9283 44.9937C37.7308 44.9937 38.2414 45.3949 38.4603 46.1974C39.5545 46.088 40.6306 45.7232 41.6884 45.1031C42.7462 44.4466 43.6763 43.6623 44.4788 42.7505C45.3177 41.8021 45.9743 40.799 46.4485 39.7412C46.9591 38.6834 47.2144 37.6621 47.2144 36.6773C47.2144 35.8018 47.0138 34.9629 46.6126 34.1604C46.2114 33.3215 45.5913 32.5737 44.7523 31.9172C43.3298 32.8291 41.9255 33.9963 40.5394 35.4188C39.1898 36.8049 37.8767 38.3004 36.6 39.9054C35.3598 41.4738 34.1926 43.024 33.0984 44.556C32.0041 46.088 31.0192 47.4741 30.1438 48.7142C28.8672 50.4651 27.554 52.2524 26.2044 54.0762C24.8548 55.8999 23.4323 57.5778 21.9368 59.1098C20.4413 60.6418 18.8546 61.8637 17.1767 62.7756C15.4988 63.724 13.6933 64.1982 11.7601 64.1982Z" fill="#2D4F40"/>
</svg>
