<svg width="64" height="64" viewBox="0 0 64 64" fill="none" xmlns="http://www.w3.org/2000/svg">
<rect y="0.000976562" width="64" height="64" rx="32" fill="#2D4F44"/>
<path d="M32 23.6676C32 21.8995 31.2976 20.2038 30.0474 18.9536C28.7971 17.7034 27.1014 17.001 25.3333 17.001H15.3333V42.001H27C28.3261 42.001 29.5978 42.5278 30.5355 43.4654C31.4732 44.4031 32 45.6749 32 47.001M32 23.6676V47.001M32 23.6676C32 21.8995 32.7024 20.2038 33.9526 18.9536C35.2028 17.7034 36.8985 17.001 38.6666 17.001H48.6666V42.001H37C35.6739 42.001 34.4021 42.5278 33.4644 43.4654C32.5268 44.4031 32 45.6749 32 47.001" stroke="white" stroke-width="3.33333" stroke-linecap="round" stroke-linejoin="round"/>
</svg>
