<svg width="64" height="64" viewBox="0 0 64 64" fill="none" xmlns="http://www.w3.org/2000/svg">
<rect y="0.000976562" width="64" height="64" rx="32" fill="#2D4F44"/>
<path d="M48.6667 30.4676V32.0009C48.6646 35.5949 47.5008 39.092 45.3489 41.9706C43.1969 44.8492 40.1721 46.955 36.7256 47.9741C33.279 48.9931 29.5954 48.8707 26.2241 47.6252C22.8528 46.3797 19.9744 44.0777 18.0182 41.0627C16.0621 38.0476 15.133 34.481 15.3694 30.8948C15.6059 27.3085 16.9953 23.8948 19.3304 21.1627C21.6656 18.4306 24.8213 16.5266 28.327 15.7345C31.8326 14.9424 35.5004 15.3048 38.7833 16.7676M48.6667 18.6676L32 35.3509L27 30.3509" stroke="white" stroke-width="3.5" stroke-linecap="round" stroke-linejoin="round"/>
</svg>
