<svg width="64" height="64" viewBox="0 0 64 64" fill="none" xmlns="http://www.w3.org/2000/svg">
<rect y="0.000976562" width="64" height="64" rx="32" fill="#8CC9F1"/>
<path d="M48.6666 40.2008V45.2008C48.6685 45.665 48.5734 46.1244 48.3875 46.5497C48.2015 46.975 47.9288 47.3568 47.5868 47.6706C47.2447 47.9844 46.8409 48.2233 46.4012 48.372C45.9615 48.5207 45.4956 48.5759 45.0333 48.5341C39.9047 47.9769 34.9783 46.2244 30.65 43.4175C26.623 40.8586 23.2089 37.4444 20.65 33.4175C17.8333 29.0695 16.0804 24.1191 15.5333 18.9675C15.4917 18.5066 15.5464 18.0421 15.6941 17.6035C15.8418 17.165 16.0793 16.762 16.3912 16.4202C16.7032 16.0784 17.083 15.8053 17.5063 15.6183C17.9296 15.4314 18.3872 15.3346 18.85 15.3341H23.85C24.6588 15.3262 25.443 15.6126 26.0562 16.14C26.6695 16.6675 27.0701 17.3999 27.1833 18.2008C27.3943 19.8009 27.7857 21.372 28.35 22.8841C28.5742 23.4807 28.6227 24.129 28.4898 24.7523C28.3569 25.3756 28.0481 25.9477 27.6 26.4008L25.4833 28.5175C27.8559 32.6901 31.3107 36.1449 35.4833 38.5175L37.6 36.4008C38.0531 35.9527 38.6252 35.6439 39.2485 35.511C39.8718 35.378 40.5201 35.4266 41.1166 35.6508C42.6288 36.2151 44.1999 36.6064 45.8 36.8175C46.6096 36.9317 47.349 37.3395 47.8775 37.9633C48.4061 38.5871 48.6869 39.3834 48.6666 40.2008Z" stroke="#2D4F44" stroke-width="3.75" stroke-linecap="round" stroke-linejoin="round"/>
</svg>
